<svg width="80" height="80" viewBox="0 0 80 80" fill="none" xmlns="http://www.w3.org/2000/svg">
<circle cx="40" cy="40" r="40" fill="#F4574D"/>
<path d="M22.2108 39.408C23.1548 39.584 23.9308 40.056 24.5388 40.824C25.1468 41.592 25.4508 42.472 25.4508 43.464C25.4508 44.36 25.2268 45.152 24.7788 45.84C24.3468 46.512 23.7148 47.04 22.8828 47.424C22.0508 47.808 21.0668 48 19.9308 48H12.7068V31.248H19.6188C20.7548 31.248 21.7308 31.432 22.5468 31.8C23.3788 32.168 24.0028 32.68 24.4188 33.336C24.8508 33.992 25.0668 34.736 25.0668 35.568C25.0668 36.544 24.8028 37.36 24.2748 38.016C23.7628 38.672 23.0748 39.136 22.2108 39.408ZM16.0668 38.16H19.1388C19.9388 38.16 20.5548 37.984 20.9868 37.632C21.4188 37.264 21.6348 36.744 21.6348 36.072C21.6348 35.4 21.4188 34.88 20.9868 34.512C20.5548 34.144 19.9388 33.96 19.1388 33.96H16.0668V38.16ZM19.4508 45.264C20.2668 45.264 20.8988 45.072 21.3468 44.688C21.8108 44.304 22.0428 43.76 22.0428 43.056C22.0428 42.336 21.8028 41.776 21.3228 41.376C20.8428 40.96 20.1948 40.752 19.3788 40.752H16.0668V45.264H19.4508ZM40.6807 34.704V48H37.2967V46.32C36.8647 46.896 36.2967 47.352 35.5927 47.688C34.9047 48.008 34.1527 48.168 33.3367 48.168C32.2967 48.168 31.3767 47.952 30.5767 47.52C29.7767 47.072 29.1447 46.424 28.6807 45.576C28.2327 44.712 28.0087 43.688 28.0087 42.504V34.704H31.3687V42.024C31.3687 43.08 31.6327 43.896 32.1607 44.472C32.6887 45.032 33.4087 45.312 34.3207 45.312C35.2487 45.312 35.9767 45.032 36.5047 44.472C37.0327 43.896 37.2967 43.08 37.2967 42.024V34.704H40.6807ZM49.0838 48.216C47.9958 48.216 47.0198 48.024 46.1558 47.64C45.2918 47.24 44.6038 46.704 44.0918 46.032C43.5958 45.36 43.3238 44.616 43.2758 43.8H46.6598C46.7238 44.312 46.9718 44.736 47.4038 45.072C47.8518 45.408 48.4038 45.576 49.0598 45.576C49.6998 45.576 50.1958 45.448 50.5478 45.192C50.9158 44.936 51.0998 44.608 51.0998 44.208C51.0998 43.776 50.8758 43.456 50.4278 43.248C49.9958 43.024 49.2998 42.784 48.3398 42.528C47.3478 42.288 46.5318 42.04 45.8918 41.784C45.2678 41.528 44.7238 41.136 44.2598 40.608C43.8118 40.08 43.5878 39.368 43.5878 38.472C43.5878 37.736 43.7958 37.064 44.2118 36.456C44.6438 35.848 45.2518 35.368 46.0358 35.016C46.8358 34.664 47.7718 34.488 48.8438 34.488C50.4278 34.488 51.6918 34.888 52.6358 35.688C53.5798 36.472 54.0998 37.536 54.1958 38.88H50.9798C50.9318 38.352 50.7078 37.936 50.3078 37.632C49.9238 37.312 49.4038 37.152 48.7478 37.152C48.1398 37.152 47.6678 37.264 47.3318 37.488C47.0118 37.712 46.8518 38.024 46.8518 38.424C46.8518 38.872 47.0758 39.216 47.5238 39.456C47.9718 39.68 48.6678 39.912 49.6118 40.152C50.5718 40.392 51.3638 40.64 51.9878 40.896C52.6118 41.152 53.1478 41.552 53.5958 42.096C54.0598 42.624 54.2998 43.328 54.3158 44.208C54.3158 44.976 54.0998 45.664 53.6678 46.272C53.2518 46.88 52.6438 47.36 51.8438 47.712C51.0598 48.048 50.1398 48.216 49.0838 48.216ZM69.794 34.704L61.562 54.288H57.986L60.866 47.664L55.538 34.704H59.306L62.738 43.992L66.218 34.704H69.794Z" fill="white"/>
</svg>
