<svg width="40" height="40" viewBox="0 0 40 40" fill="none" xmlns="http://www.w3.org/2000/svg">
<circle cx="20" cy="20" r="20" fill="#4C986C"/>
<path d="M13 16.2308C13 22.1785 17.8215 27 23.7692 27H25.3846C26.2768 27 27 26.2768 27 25.3846V24.3999C27 24.0292 26.7478 23.7062 26.3882 23.6163L23.2126 22.8224C22.8973 22.7436 22.5655 22.8614 22.3705 23.1213L21.674 24.0501C21.4718 24.3196 21.1222 24.4388 20.8058 24.3229C18.4316 23.4532 16.5468 21.5684 15.6771 19.1942C15.5612 18.8778 15.6804 18.5282 15.9499 18.326L16.8787 17.6295C17.1386 17.4345 17.2564 17.1027 17.1776 16.7874L16.3837 13.6118C16.2938 13.2522 15.9708 13 15.6001 13H14.6154C13.7232 13 13 13.7232 13 14.6154V16.2308Z" stroke="white" stroke-linecap="round" stroke-linejoin="round"/>
</svg>
