<svg width="40" height="40" viewBox="0 0 40 40" fill="none" xmlns="http://www.w3.org/2000/svg">
<circle cx="20" cy="20" r="20" fill="#4C986C"/>
<path d="M18.9797 23.1128L19.323 23.4451L19.6705 23.1173L20.0655 22.7447L21.5066 21.3855L28.84 28.0075H10.299C11.4286 26.9343 12.5988 25.8275 13.6795 24.8134C14.866 23.7001 15.9409 22.7022 16.7345 21.9842C16.9437 21.7949 17.1315 21.6268 17.2954 21.4823L18.5899 22.7355L18.9797 23.1128ZM9.94057 11.5H28.9911L19.3421 20.6013L9.94057 11.5ZM8.5 12.9678L15.8158 20.0499C15.6589 20.1889 15.4862 20.3438 15.3001 20.5121C14.4922 21.2429 13.4064 22.2511 12.2175 23.3667C11.0281 24.4828 9.73157 25.7099 8.5 26.8811V12.9678ZM23.0055 19.9716L30.5 12.9025V26.739L23.0055 19.9716Z" stroke="white"/>
</svg>
