<svg width="80" height="80" viewBox="0 0 80 80" fill="none" xmlns="http://www.w3.org/2000/svg">
<circle cx="40" cy="40" r="40" fill="#4C986C"/>
<path d="M36.32 36.288C35.936 35.584 35.408 35.048 34.736 34.68C34.064 34.312 33.28 34.128 32.384 34.128C31.392 34.128 30.512 34.352 29.744 34.8C28.976 35.248 28.376 35.888 27.944 36.72C27.512 37.552 27.296 38.512 27.296 39.6C27.296 40.72 27.512 41.696 27.944 42.528C28.392 43.36 29.008 44 29.792 44.448C30.576 44.896 31.488 45.12 32.528 45.12C33.808 45.12 34.856 44.784 35.672 44.112C36.488 43.424 37.024 42.472 37.28 41.256H31.52V38.688H40.592V41.616C40.368 42.784 39.888 43.864 39.152 44.856C38.416 45.848 37.464 46.648 36.296 47.256C35.144 47.848 33.848 48.144 32.408 48.144C30.792 48.144 29.328 47.784 28.016 47.064C26.72 46.328 25.696 45.312 24.944 44.016C24.208 42.72 23.84 41.248 23.84 39.6C23.84 37.952 24.208 36.48 24.944 35.184C25.696 33.872 26.72 32.856 28.016 32.136C29.328 31.4 30.784 31.032 32.384 31.032C34.272 31.032 35.912 31.496 37.304 32.424C38.696 33.336 39.656 34.624 40.184 36.288H36.32ZM48.9819 48.216C47.7019 48.216 46.5499 47.936 45.5259 47.376C44.5019 46.8 43.6939 45.992 43.1019 44.952C42.5259 43.912 42.2379 42.712 42.2379 41.352C42.2379 39.992 42.5339 38.792 43.1259 37.752C43.7339 36.712 44.5579 35.912 45.5979 35.352C46.6379 34.776 47.7979 34.488 49.0779 34.488C50.3579 34.488 51.5179 34.776 52.5579 35.352C53.5979 35.912 54.4139 36.712 55.0059 37.752C55.6139 38.792 55.9179 39.992 55.9179 41.352C55.9179 42.712 55.6059 43.912 54.9819 44.952C54.3739 45.992 53.5419 46.8 52.4859 47.376C51.4459 47.936 50.2779 48.216 48.9819 48.216ZM48.9819 45.288C49.5899 45.288 50.1579 45.144 50.6859 44.856C51.2299 44.552 51.6619 44.104 51.9819 43.512C52.3019 42.92 52.4619 42.2 52.4619 41.352C52.4619 40.088 52.1259 39.12 51.4539 38.448C50.7979 37.76 49.9899 37.416 49.0299 37.416C48.0699 37.416 47.2619 37.76 46.6059 38.448C45.9659 39.12 45.6459 40.088 45.6459 41.352C45.6459 42.616 45.9579 43.592 46.5819 44.28C47.2219 44.952 48.0219 45.288 48.9819 45.288Z" fill="white"/>
</svg>
