<svg width="80" height="80" viewBox="0 0 80 80" fill="none" xmlns="http://www.w3.org/2000/svg">
<circle cx="40" cy="40" r="40" fill="#F4574D"/>
<path d="M19.69 48.168C18.522 48.168 17.466 47.968 16.522 47.568C15.594 47.168 14.858 46.592 14.314 45.84C13.77 45.088 13.49 44.2 13.474 43.176H17.074C17.122 43.864 17.362 44.408 17.794 44.808C18.242 45.208 18.85 45.408 19.618 45.408C20.402 45.408 21.018 45.224 21.466 44.856C21.914 44.472 22.138 43.976 22.138 43.368C22.138 42.872 21.986 42.464 21.682 42.144C21.378 41.824 20.994 41.576 20.53 41.4C20.082 41.208 19.458 41 18.658 40.776C17.57 40.456 16.682 40.144 15.994 39.84C15.322 39.52 14.738 39.048 14.242 38.424C13.762 37.784 13.522 36.936 13.522 35.88C13.522 34.888 13.77 34.024 14.266 33.288C14.762 32.552 15.458 31.992 16.354 31.608C17.25 31.208 18.274 31.008 19.426 31.008C21.154 31.008 22.554 31.432 23.626 32.28C24.714 33.112 25.314 34.28 25.426 35.784H21.73C21.698 35.208 21.45 34.736 20.986 34.368C20.538 33.984 19.938 33.792 19.186 33.792C18.53 33.792 18.002 33.96 17.602 34.296C17.218 34.632 17.026 35.12 17.026 35.76C17.026 36.208 17.17 36.584 17.458 36.888C17.762 37.176 18.13 37.416 18.562 37.608C19.01 37.784 19.634 37.992 20.434 38.232C21.522 38.552 22.41 38.872 23.098 39.192C23.786 39.512 24.378 39.992 24.874 40.632C25.37 41.272 25.618 42.112 25.618 43.152C25.618 44.048 25.386 44.88 24.922 45.648C24.458 46.416 23.778 47.032 22.882 47.496C21.986 47.944 20.922 48.168 19.69 48.168ZM32.443 37.464V43.896C32.443 44.344 32.547 44.672 32.755 44.88C32.979 45.072 33.347 45.168 33.859 45.168H35.419V48H33.307C30.475 48 29.059 46.624 29.059 43.872V37.464H27.475V34.704H29.059V31.416H32.443V34.704H35.419V37.464H32.443ZM43.7397 48.216C42.4597 48.216 41.3077 47.936 40.2837 47.376C39.2597 46.8 38.4517 45.992 37.8597 44.952C37.2837 43.912 36.9957 42.712 36.9957 41.352C36.9957 39.992 37.2917 38.792 37.8837 37.752C38.4917 36.712 39.3157 35.912 40.3557 35.352C41.3957 34.776 42.5557 34.488 43.8357 34.488C45.1157 34.488 46.2757 34.776 47.3157 35.352C48.3557 35.912 49.1717 36.712 49.7637 37.752C50.3717 38.792 50.6757 39.992 50.6757 41.352C50.6757 42.712 50.3637 43.912 49.7397 44.952C49.1317 45.992 48.2997 46.8 47.2437 47.376C46.2037 47.936 45.0357 48.216 43.7397 48.216ZM43.7397 45.288C44.3477 45.288 44.9157 45.144 45.4437 44.856C45.9877 44.552 46.4197 44.104 46.7397 43.512C47.0597 42.92 47.2197 42.2 47.2197 41.352C47.2197 40.088 46.8837 39.12 46.2117 38.448C45.5557 37.76 44.7477 37.416 43.7877 37.416C42.8277 37.416 42.0197 37.76 41.3637 38.448C40.7237 39.12 40.4037 40.088 40.4037 41.352C40.4037 42.616 40.7157 43.592 41.3397 44.28C41.9797 44.952 42.7797 45.288 43.7397 45.288ZM56.5004 36.624C56.9324 36.016 57.5244 35.512 58.2764 35.112C59.0444 34.696 59.9164 34.488 60.8924 34.488C62.0284 34.488 63.0524 34.768 63.9644 35.328C64.8924 35.888 65.6204 36.688 66.1484 37.728C66.6924 38.752 66.9644 39.944 66.9644 41.304C66.9644 42.664 66.6924 43.872 66.1484 44.928C65.6204 45.968 64.8924 46.776 63.9644 47.352C63.0524 47.928 62.0284 48.216 60.8924 48.216C59.9164 48.216 59.0524 48.016 58.3004 47.616C57.5644 47.216 56.9644 46.712 56.5004 46.104V54.336H53.1404V34.704H56.5004V36.624ZM63.5324 41.304C63.5324 40.504 63.3644 39.816 63.0284 39.24C62.7084 38.648 62.2764 38.2 61.7324 37.896C61.2044 37.592 60.6284 37.44 60.0044 37.44C59.3964 37.44 58.8204 37.6 58.2764 37.92C57.7484 38.224 57.3164 38.672 56.9804 39.264C56.6604 39.856 56.5004 40.552 56.5004 41.352C56.5004 42.152 56.6604 42.848 56.9804 43.44C57.3164 44.032 57.7484 44.488 58.2764 44.808C58.8204 45.112 59.3964 45.264 60.0044 45.264C60.6284 45.264 61.2044 45.104 61.7324 44.784C62.2764 44.464 62.7084 44.008 63.0284 43.416C63.3644 42.824 63.5324 42.12 63.5324 41.304Z" fill="white"/>
</svg>
